<?xml version="1.0" encoding="utf-8"?>
<!-- Generator: Adobe Illustrator 19.1.0, SVG Export Plug-In . SVG Version: 6.00 Build 0)  -->
<svg version="1.1" id="Layer_1" xmlns="http://www.w3.org/2000/svg" xmlns:xlink="http://www.w3.org/1999/xlink" x="0px" y="0px"
	 viewBox="-743 1745 512 512" style="enable-background:new -743 1745 512 512;" xml:space="preserve">
<style type="text/css">
	.st0{fill:#EA735D;}
	.st1{fill:#FFFFFF;}
</style>
<g id="solid" xmlns:cc="http://creativecommons.org/ns#" xmlns:svg="http://www.w3.org/2000/svg" xmlns:inkscape="http://www.inkscape.org/namespaces/inkscape" xmlns:rdf="http://www.w3.org/1999/02/22-rdf-syntax-ns#" xmlns:dc="http://purl.org/dc/elements/1.1/" xmlns:sodipodi="http://sodipodi.sourceforge.net/DTD/sodipodi-0.dtd" sodipodi:docname="twitter_bootstrap_logo.svg" inkscape:version="0.48.1 r9760">
	<path id="bg" class="st0" d="M-241.1,2165c0,45.1-36.9,82-82,82H-651c-45.1,0-82-36.9-82-82v-328c0-45.1,36.9-82,82-82h328
		c45.1,0,82,36.9,82,82L-241.1,2165L-241.1,2165z"/>
	<g id="B">
		<path class="st1" d="M-599.3,1862h139.4c25.7,0,46.4,5.9,61.9,17.7c15.5,11.8,23.3,29.6,23.3,53.4c0,14.5-3.5,26.8-10.6,37.1
			c-7.1,10.3-17.2,18.3-30.4,24v0.8c17.7,3.8,31.1,12.1,40.2,25.1s13.7,29.3,13.7,48.9c0,11.3-2,21.8-6,31.5
			c-4,9.8-10.3,18.2-18.9,25.3s-19.5,12.7-33,16.9c-13.4,4.2-29.3,6.3-47.8,6.3h-131.8V1862L-599.3,1862z M-549,1982.1h82
			c12.1,0,22.1-3.4,30.1-10.3s12.1-16.7,12.1-29.6c0-14.5-3.6-24.7-10.8-30.5c-7.2-5.9-17.7-8.8-31.3-8.8h-82L-549,1982.1
			L-549,1982.1z M-549,2107.9h88.8c15.3,0,27.2-3.9,35.5-11.9c8.4-7.9,12.7-19.1,12.7-33.6c0-14.2-4.2-25.1-12.7-32.8
			c-8.5-7.7-20.3-11.4-35.5-11.4H-549V2107.9z"/>
	</g>
</g>
</svg>
